<?xml version="1.0" encoding="UTF-8" standalone="no"?>
<svg
   version="1.1"
   id="Layer_1"
   x="0px"
   y="0px"
   width="100%"
   viewBox="0 0 1080 1080"
   enable-background="new 0 0 1080 1080"
   xml:space="preserve"
   sodipodi:docname="Logo redes-vector2.svg"
   inkscape:version="1.3.2 (091e20e, 2023-11-25)"
   xmlns:inkscape="http://www.inkscape.org/namespaces/inkscape"
   xmlns:sodipodi="http://sodipodi.sourceforge.net/DTD/sodipodi-0.dtd"
   xmlns="http://www.w3.org/2000/svg"
   xmlns:svg="http://www.w3.org/2000/svg"><defs
   id="defs48"><linearGradient
     id="outerGradient"
     x1="0"
     y1="0"
     x2="1080"
     y2="1080"
     gradientUnits="userSpaceOnUse"
     gradientTransform="translate(-0.4132381,0.4847942)"><stop
       offset="0%"
       stop-color="#E7646B"
       id="stop1" /><stop
       offset="45%"
       stop-color="#C05BAE"
       id="stop2" /><stop
       offset="100%"
       stop-color="#7A5CF0"
       id="stop3" /></linearGradient></defs><sodipodi:namedview
   id="namedview48"
   pagecolor="#ffffff"
   bordercolor="#000000"
   borderopacity="0.25"
   inkscape:showpageshadow="2"
   inkscape:pageopacity="0.0"
   inkscape:pagecheckerboard="0"
   inkscape:deskcolor="#d1d1d1"
   inkscape:zoom="0.51759259"
   inkscape:cx="540"
   inkscape:cy="540"
   inkscape:window-width="1392"
   inkscape:window-height="1212"
   inkscape:window-x="942"
   inkscape:window-y="38"
   inkscape:window-maximized="0"
   inkscape:current-layer="Layer_1" />






























<path
   fill="#0F1E80"
   opacity="1.000000"
   stroke="none"
   d=" M616.612488,475.597717   C619.341919,472.482666 621.831604,469.628082 624.834412,466.185181   C589.742737,466.185181 555.358276,466.185181 520.654114,466.185181   C520.654114,450.710144 520.654114,435.657501 520.654114,420.380676   C577.877441,420.380676 634.825562,420.380676 692.493286,420.380676   C692.493286,428.496033 691.953003,436.651825 692.639160,444.703094   C693.385620,453.462555 690.711670,459.985718 684.647766,466.469177   C669.744751,482.403381 655.647156,499.091034 641.228943,515.478516   C640.041138,516.828491 638.878784,518.200623 637.459595,519.846619   C643.994385,521.675232 650.137756,523.033508 656.029968,525.105652   C681.641113,534.112183 698.549011,551.436096 702.626160,578.627930   C706.950195,607.466064 697.777222,631.832397 674.103760,649.878540   C657.249329,662.726440 637.700439,668.337769 616.963196,669.797302   C587.519958,671.869507 558.764160,668.245300 531.383362,656.720215   C523.476074,653.391907 516.058411,648.900574 507.820679,644.633911   C515.448303,629.607971 522.702026,615.318481 529.928162,601.083435   C537.315796,605.037903 544.143372,609.523682 551.572571,612.515808   C575.236206,622.046448 599.641785,626.275818 624.700134,618.723328   C642.909790,613.234985 650.817993,596.950562 644.428894,579.869446   C641.220764,571.292725 634.372986,566.199219 626.072998,564.497986   C615.566711,562.344482 604.711304,561.750916 593.972473,560.930237   C587.706177,560.451416 581.373413,560.842957 574.503723,560.842957   C574.503723,548.512512 574.421997,536.554565 574.613281,524.600891   C574.635742,523.201355 575.973328,521.658997 577.022095,520.464600   C590.104492,505.565521 603.246216,490.718506 616.612488,475.597717  z"
   id="path31" />
<path
   fill="#0F1E7F"
   opacity="1.000000"
   stroke="none"
   d=" M824.964050,461.000000   C824.964050,529.445679 824.964050,597.391357 824.964050,665.668762   C806.033936,665.668762 787.312439,665.668762 768.181641,665.668762   C768.181641,599.372314 768.181641,532.997253 768.181641,466.201538   C751.715210,466.201538 735.645874,466.201538 719.251465,466.201538   C719.251465,450.747040 719.251465,435.710846 719.251465,420.416016   C754.404419,420.416016 789.450134,420.416016 824.964050,420.416016   C824.964050,433.936371 824.964050,447.218170 824.964050,461.000000  z"
   id="path32" />
<path
   fill="#0586BF"
   opacity="1.000000"
   stroke="none"
   d=" M226.000244,593.218567   C225.965851,593.381409 225.983444,593.629822 225.886093,593.688904   C225.694717,593.804993 225.439499,593.815796 225.210693,593.870178   C225.126236,592.888245 224.967987,591.906372 224.967850,590.924438   C224.959671,535.343872 224.964371,479.763336 224.973923,424.182770   C224.973999,423.690063 225.057098,423.197357 225.145996,422.209534   C226.506561,422.116516 227.923370,421.936371 229.340363,421.935150   C250.640686,421.917084 271.941284,421.880310 293.240814,422.011719   C294.762756,422.021088 296.276794,423.303162 297.387268,424.571503   C296.511353,425.800171 295.898468,426.389984 295.594666,427.110138   C275.140808,475.598450 254.681931,524.084778 234.316849,572.610413   C231.638412,578.992493 229.450333,585.580383 227.035126,592.072937   C227.035126,592.072937 227.005478,592.011658 226.758316,592.090393   C226.340851,592.518921 226.170547,592.868774 226.000244,593.218567  z"
   id="path33" />
<path
   fill="#FACA04"
   opacity="1.000000"
   stroke="none"
   d=" M304.994537,331.486786   C305.633453,331.328125 306.272247,331.031067 306.911255,331.030640   C340.009705,331.008118 373.108154,331.010773 406.603760,331.010773   C406.603760,366.127289 406.603760,401.107971 406.603760,433.469940   C397.949951,425.567505 387.846436,416.341217 377.272766,406.664429   C374.869263,404.159729 372.956604,402.085571 370.999390,400.054352   C349.122437,377.350555 327.238617,354.653412 305.291473,331.817902   C305.226288,331.681366 304.994537,331.486786 304.994537,331.486786  z"
   id="path34" />
<path
   fill="#F6582A"
   opacity="1.000000"
   stroke="none"
   d=" M297.785156,680.994080   C297.020996,682.025208 296.388672,683.194641 295.473419,684.067322   C272.591553,705.883972 249.680649,727.670227 226.765533,749.451965   C226.439529,749.761841 225.994766,749.946899 225.081268,750.517700   C225.081268,704.258179 225.081268,658.430115 225.444824,612.312500   C225.808380,612.022949 226.044815,612.218872 226.191574,612.500061   C250.153946,635.518860 273.969543,658.256470 297.785156,680.994080  z"
   id="path35" />
<path
   fill="#814795"
   opacity="1.000000"
   stroke="none"
   d=" M488.747620,417.020386   C488.832123,440.171661 488.926392,463.322876 488.996368,486.474182   C489.024963,495.931305 489.001099,505.388580 489.001099,515.103760   C456.795258,515.103760 425.098755,515.103760 392.325256,515.103760   C401.588806,505.523743 410.200745,496.617615 419.266052,487.260376   C425.104431,481.406982 430.535034,476.049255 435.865997,470.594208   C453.241577,452.814026 470.580719,434.998260 488.136505,417.148407   C488.339111,417.100616 488.747620,417.020386 488.747620,417.020386  z"
   id="path36" />
<path
   fill="#0587C2"
   opacity="1.000000"
   stroke="none"
   d=" M405.947968,603.052979   C404.735413,603.363220 403.523315,603.942444 402.310272,603.944458   C373.013153,603.993347 343.715912,603.981750 314.418701,603.970947   C313.782898,603.970703 313.147156,603.852539 312.251343,603.763611   C312.251343,574.892639 312.251343,546.176453 312.251343,516.418274   C317.369415,521.154114 322.022095,525.459412 327.079498,530.266479   C350.977875,552.911560 374.454102,575.073486 397.993500,597.168091   C400.225616,599.263184 402.853607,600.936584 405.297791,602.805725   C405.297791,602.805725 405.713623,602.858521 405.853729,602.973022   C405.993835,603.087463 405.947968,603.052979 405.947968,603.052979  z"
   id="path37" />
<path
   fill="#0D1B80"
   opacity="1.000000"
   stroke="none"
   d=" M227.361786,591.984009   C229.450333,585.580383 231.638412,578.992493 234.316849,572.610413   C254.681931,524.084778 275.140808,475.598450 295.594666,427.110138   C295.898468,426.389984 296.511353,425.800171 297.274261,424.968140   C297.431915,456.881744 297.342957,488.977264 297.032593,521.070618   C297.015137,522.873108 295.525848,525.013184 294.128693,526.397766   C272.039307,548.288147 249.852707,570.080322 227.361786,591.984009  z"
   id="path38" />
<path
   fill="#ED5C82"
   opacity="1.000000"
   stroke="none"
   d=" M305.045380,406.898407   C278.963623,406.898407 252.881851,406.898407 225.561813,406.898407   C252.362076,381.334045 278.342651,356.551544 304.658875,331.627930   C304.994537,331.486786 305.226288,331.681366 305.159454,332.276978   C305.076874,357.547852 305.061127,382.223114 305.045380,406.898407  z"
   id="path39" />
<path
   fill="#79BC32"
   opacity="1.000000"
   stroke="none"
   d=" M405.312439,602.352905   C402.853607,600.936584 400.225616,599.263184 397.993500,597.168091   C374.454102,575.073486 350.977875,552.911560 327.348358,530.491455   C352.987976,530.214600 378.763428,530.214600 405.327118,530.214600   C405.327118,554.134033 405.327118,578.017029 405.312439,602.352905  z"
   id="path40" />
<path
   fill="#089A6B"
   opacity="1.000000"
   stroke="none"
   d=" M406.016052,603.105591   C405.922302,591.137634 405.760315,579.151855 405.703064,567.165466   C405.644958,555.003845 405.690247,542.841736 405.690247,530.309204   C430.749451,530.309204 455.620728,530.309204 481.504730,530.309204   C456.210785,554.825378 431.413788,578.859802 406.282410,602.973633   C405.947968,603.052979 405.993835,603.087463 406.016052,603.105591  z"
   id="path41" />
<path
   fill="#804799"
   opacity="1.000000"
   stroke="none"
   d=" M225.670044,611.956421   C233.031952,603.896057 240.483276,595.855774 248.042587,587.918335   C263.750031,571.425110 279.513123,554.984924 295.261261,538.530457   C295.895508,537.867737 296.610718,537.282471 297.948181,536.055847   C297.948181,561.669373 297.948181,586.376343 297.420288,611.546692   C273.276550,612.079651 249.660690,612.149292 226.044815,612.218872   C226.044815,612.218872 225.808380,612.022949 225.670044,611.956421  z"
   id="path42" />
<path
   fill="#F11C40"
   opacity="1.000000"
   stroke="none"
   d=" M305.505493,406.975922   C305.061127,382.223114 305.076874,357.547852 305.224640,332.413513   C327.238617,354.653412 349.122437,377.350555 370.999390,400.054352   C372.956604,402.085571 374.869263,404.159729 376.988098,406.485840   C362.239655,406.865082 347.305908,406.997406 332.371826,407.070343   C323.570007,407.113342 314.767670,407.062225 305.505493,406.975922  z"
   id="path43" />
<path
   fill="#ED1A3B"
   opacity="1.000000"
   stroke="none"
   d=" M226.191574,612.500061   C249.660690,612.149292 273.276550,612.079651 297.347778,612.010986   C297.851379,634.696472 297.899658,657.380981 297.866547,680.529785   C273.969543,658.256470 250.153946,635.518860 226.191574,612.500061  z"
   id="path44" />
<path
   fill="#F85F2B"
   opacity="1.000000"
   stroke="none"
   d=" M419.197815,416.038147   C419.197815,392.630157 419.197815,369.222107 419.197815,344.762909   C442.531311,368.719299 465.240479,392.034698 487.550110,415.677124   C464.499664,416.015472 441.848724,416.026825 419.197815,416.038147  z"
   id="path45" />
<path
   fill="#F11C40"
   opacity="1.000000"
   stroke="none"
   d=" M487.933899,417.196198   C470.580719,434.998260 453.241577,452.814026 435.865997,470.594208   C430.535034,476.049255 425.104431,481.406982 419.423950,486.966156   C419.083954,464.071014 419.039398,441.019043 419.539520,417.510437   C442.700775,417.101288 465.317322,417.148743 487.933899,417.196198  z"
   id="path46" />
<path
   fill="#ED5C82"
   opacity="1.000000"
   stroke="none"
   d=" M488.136505,417.148407   C465.317322,417.148743 442.700775,417.101288 419.627380,417.052368   C419.149200,416.881042 419.127899,416.711243 419.152191,416.289795   C441.848724,416.026825 464.499664,416.015472 487.627197,416.012390   C488.460938,416.036041 488.685638,416.216370 488.762817,416.791016   C488.747620,417.020386 488.339111,417.100616 488.136505,417.148407  z"
   id="path47" />
<path
   fill="#0D1B80"
   opacity="1.000000"
   stroke="none"
   d=" M226.277557,593.114380   C226.170547,592.868774 226.340851,592.518921 226.792221,592.087402   C226.900467,592.340515 226.727661,592.675354 226.277557,593.114380  z"
   id="path48" />
<circle
   cx="539.58673"
   cy="540.4848"
   r="425.90338"
   fill="none"
   stroke="url(#outerGradient)"
   stroke-width="28"
   stroke-linecap="round"
   id="circle3"
   style="stroke:url(#outerGradient)" /></svg>
